# Blender v2.81 (sub 16) OBJ File: ''
# www.blender.org
mtllib meat.mtl
o cube
v 0.250000 -0.500000 -0.500000
v -0.250000 -0.500000 -0.500000
v -0.250000 0.000000 -0.500000
v 0.250000 0.000000 -0.500000
v 0.250000 -0.500000 0.125000
v 0.250000 -0.000000 0.125000
v -0.250000 -0.500000 0.125000
v -0.250000 -0.000000 0.125000
vt 0.000000 0.250000
vt 0.250000 0.250000
vt 0.250000 0.500000
vt 0.000000 0.500000
vt 0.000000 0.750000
vt 0.312500 0.750000
vt 0.312500 1.000000
vt 0.000000 1.000000
vt 0.562500 0.750000
vt 0.812500 0.750000
vt 0.812500 1.000000
vt 0.562500 1.000000
vt 0.000000 0.500000
vt 0.312500 0.500000
vt 0.312500 0.750000
vt 0.000000 0.750000
vt 0.312500 1.000000
vt 0.312500 0.687500
vt 0.562500 0.687500
vt 0.562500 0.375000
vt 0.312500 0.375000
vt 0.312500 0.687500
vt 0.562500 0.687500
vn 0.0000 0.0000 -1.0000
vn 1.0000 0.0000 0.0000
vn 0.0000 -0.0000 1.0000
vn -1.0000 -0.0000 0.0000
vn 0.0000 1.0000 0.0000
vn 0.0000 -1.0000 -0.0000
usemtl m_0
s 1
f 1/1/1 2/2/1 3/3/1 4/4/1
f 5/5/2 1/6/2 4/7/2 6/8/2
f 7/9/3 5/10/3 6/11/3 8/12/3
f 2/13/4 7/14/4 8/15/4 3/16/4
f 8/12/5 6/17/5 4/18/5 3/19/5
f 2/20/6 1/21/6 5/22/6 7/23/6
o cube.000
v 0.062500 -0.312500 0.125000
v -0.062500 -0.312500 0.125000
v -0.062500 -0.187500 0.125000
v 0.062500 -0.187500 0.125000
v 0.062500 -0.312500 0.500000
v 0.062500 -0.187500 0.500000
v -0.062500 -0.312500 0.500000
v -0.062500 -0.187500 0.500000
vt 0.812500 0.125000
vt 0.875000 0.125000
vt 0.875000 0.187500
vt 0.812500 0.187500
vt 0.812500 0.125000
vt 1.000000 0.125000
vt 1.000000 0.187500
vt 0.812500 0.187500
vt 0.812500 0.125000
vt 0.875000 0.125000
vt 0.875000 0.187500
vt 0.812500 0.187500
vt 0.812500 0.125000
vt 1.000000 0.125000
vt 1.000000 0.187500
vt 0.812500 0.187500
vt 0.812500 0.000000
vt 0.875000 0.000000
vt 0.875000 0.187500
vt 0.812500 0.000000
vt 0.875000 0.000000
vt 0.875000 0.187500
vt 0.812500 0.187500
vn 0.0000 0.0000 -1.0000
vn 1.0000 0.0000 0.0000
vn 0.0000 0.0000 1.0000
vn -1.0000 0.0000 0.0000
vn 0.0000 1.0000 0.0000
vn 0.0000 -1.0000 -0.0000
usemtl m_0
s 1
f 9/24/7 10/25/7 11/26/7 12/27/7
f 13/28/8 9/29/8 12/30/8 14/31/8
f 15/32/9 13/33/9 14/34/9 16/35/9
f 10/36/10 15/37/10 16/38/10 11/39/10
f 16/40/11 14/41/11 12/42/11 11/39/11
f 10/43/12 9/44/12 13/45/12 15/46/12
